<svg width="18" height="18" viewBox="0 0 18 18" fill="none" xmlns="http://www.w3.org/2000/svg">
<path d="M1.50001 1.5L4.49098 4.49097M16.5 16.5L13.5093 13.5093M10.5624 14.6872C10.0564 14.7831 9.53428 14.8333 9.00039 14.8333C5.26902 14.8333 2.11043 12.3809 1.04855 8.99997C1.33763 8.07958 1.7821 7.22801 2.35121 6.47598M7.23224 7.23223C7.68465 6.77982 8.30965 6.5 9.00001 6.5C10.3807 6.5 11.5 7.61929 11.5 9C11.5 9.69036 11.2202 10.3154 10.7678 10.7678M7.23224 7.23223L10.7678 10.7678M7.23224 7.23223L4.49098 4.49097M10.7678 10.7678L4.49098 4.49097M10.7678 10.7678L13.5093 13.5093M4.49098 4.49097C5.79083 3.65295 7.33881 3.16667 9.00038 3.16667C12.7318 3.16667 15.8903 5.61909 16.9522 9.00003C16.3631 10.8756 15.1288 12.4654 13.5093 13.5093" stroke="#101010" stroke-width="2" stroke-linecap="round" stroke-linejoin="round"/>
</svg>
